<?xml version="1.0" encoding="UTF-8"?>
<svg width="28px" height="42px" viewBox="0 0 28 42" version="1.1" xmlns="http://www.w3.org/2000/svg" xmlns:xlink="http://www.w3.org/1999/xlink">
    <!-- Generator: Sketch 51 (57462) - http://www.bohemiancoding.com/sketch -->
    <title>download</title>
    <desc>Created with Sketch.</desc>
    <defs></defs>
    <g id="Page-1" stroke="none" stroke-width="1" fill="none" fill-rule="evenodd">
        <g id="download" fill="#000000" fill-rule="nonzero">
            <path d="M27.6080113,21.9572263 L25.5364753,19.5026251 C24.9643667,18.8251551 23.9741788,18.7596991 23.3203404,19.3520762 L17.1434538,24.9878406 L17.1434538,1.63640083 C17.1434538,0.733107571 16.4393201,0 15.5717269,0 L12.4282731,0 C11.5606799,0 10.8565462,0.733107571 10.8565462,1.63640083 L10.8565462,24.9878406 L4.6796596,19.3520762 C4.02896467,18.7596991 3.03877673,18.8251551 2.46352469,19.5026251 L0.391988665,21.9539535 C-0.183263373,22.6346962 -0.117250844,23.6721744 0.536587538,24.2678243 L12.9658037,35.5949908 C13.5599165,36.1350031 14.443227,36.1350031 15.0373397,35.5949908 L27.4634125,24.2678243 C28.1172508,23.6721744 28.1832634,22.6346962 27.6080113,21.9572263 Z" id="Shape"></path>
            <path d="M26.8333333,36.4 L1.16666667,36.4 C0.522666667,36.4 0,37.0272 0,37.8 L0,40.6 C0,41.3728 0.522666667,42 1.16666667,42 L26.8333333,42 C27.4773333,42 28,41.3728 28,40.6 L28,37.8 C28,37.0272 27.4773333,36.4 26.8333333,36.4 Z" id="Shape"></path>
        </g>
    </g>
</svg>