<?xml version="1.0" encoding="utf-8"?>
<!-- Generator: Adobe Illustrator 22.0.1, SVG Export Plug-In . SVG Version: 6.00 Build 0)  -->
<svg version="1.1" id="Слой_1" xmlns="http://www.w3.org/2000/svg" xmlns:xlink="http://www.w3.org/1999/xlink" x="0px" y="0px"
	 viewBox="0 0 614.4 492.6" style="enable-background:new 0 0 614.4 492.6;" xml:space="preserve">
<g>
	<g>
		<path d="M590.7,46.3c-16.9-15.2-40.9-23.9-65.9-23.9H388.3C365.7,8.3,337.6,0,307.2,0s-58.5,8.3-81.1,22.4H89.6
			c-25,0-49,8.7-65.9,23.9C6.7,61.5-1.6,81.2,0.2,101.8l5.8,65.6c0.4,4.1,4.7,7.2,9.6,6.9c4.9-0.3,8.7-3.9,8.3-8l-5.8-65.6
			c-1.5-16.4,5.2-32.1,18.7-44.2c13.7-12.3,32.5-19.1,52.7-19.1h116.8c-21.8,20.1-35.1,46.8-35.1,75.9c0,62.5,61,113.3,136,113.3
			s136-50.8,136-113.3c0-29.2-13.3-55.8-35.1-75.9h116.8c20.3,0,39,6.8,52.7,19.1c13.5,12.1,20.1,27.8,18.7,44.2l-28.7,322.2
			c-2.7,30.7-34.1,54.7-71.4,54.7H367c-5,0-9,3.3-9,7.5s4,7.5,9,7.5h129.1c22.7,0,44.3-7,60.9-19.8c16.6-12.8,26.7-30.1,28.4-48.8
			l28.7-322.2C616,81.2,607.7,61.5,590.7,46.3z M425.2,113.3c0,54.2-53,98.4-118,98.4s-118-44.1-118-98.4s53-98.4,118-98.4
			S425.2,59.1,425.2,113.3z"/>
	</g>
</g>
<g>
	<g>
		<path d="M312,477.7H118.2c-37.3,0-68.7-24-71.4-54.7L28.4,211.4c-0.4-4.1-4.7-7.2-9.6-6.9c-4.9,0.3-8.7,3.9-8.3,8l18.4,211.6
			c1.7,18.7,11.7,36,28.4,48.8c16.6,12.7,38.3,19.8,60.9,19.8H312c5,0,9-3.3,9-7.5S316.9,477.7,312,477.7z"/>
	</g>
</g>
<g>
	<g>
		<path d="M307.2,27.5c-5,0-9,3.3-9,7.5v16.5c0,4.1,4,7.5,9,7.5c5,0,9-3.3,9-7.5V35C316.2,30.9,312.2,27.5,307.2,27.5z"/>
	</g>
</g>
<g>
	<g>
		<path d="M307.2,167.7c-5,0-9,3.3-9,7.5v16.5c0,4.1,4,7.5,9,7.5c5,0,9-3.3,9-7.5v-16.5C316.2,171,312.2,167.7,307.2,167.7z"/>
	</g>
</g>
<g>
	<g>
		<path d="M277.9,56.1L268,41.7c-2.5-3.6-8-4.8-12.3-2.7c-4.3,2.1-5.8,6.6-3.3,10.2l9.9,14.3c1.7,2.4,4.7,3.7,7.8,3.7
			c1.5,0,3.1-0.3,4.5-1C278.9,64.2,280.4,59.6,277.9,56.1z"/>
	</g>
</g>
<g>
	<g>
		<path d="M362,177.4l-9.9-14.3c-2.5-3.6-8-4.8-12.3-2.7c-4.3,2.1-5.8,6.6-3.3,10.2l9.9,14.3c1.7,2.4,4.7,3.7,7.8,3.7
			c1.5,0,3.1-0.3,4.5-1C363,185.6,364.5,181,362,177.4z"/>
	</g>
</g>
<g>
	<g>
		<path d="M247.5,76l-17.2-8.3c-4.3-2.1-9.8-0.8-12.3,2.7c-2.5,3.6-1,8.1,3.3,10.2l17.2,8.3c1.4,0.7,3,1,4.5,1
			c3.1,0,6.1-1.3,7.8-3.7C253.2,82.6,251.8,78,247.5,76z"/>
	</g>
</g>
<g>
	<g>
		<path d="M393.1,146l-17.2-8.3c-4.3-2.1-9.8-0.8-12.3,2.7c-2.5,3.6-1,8.1,3.3,10.2l17.2,8.3c1.4,0.7,3,1,4.5,1
			c3.1,0,6.1-1.3,7.8-3.7C398.9,152.7,397.4,148.1,393.1,146z"/>
	</g>
</g>
<g>
	<g>
		<path d="M233,105.8h-19.8c-5,0-9,3.3-9,7.5s4,7.5,9,7.5H233c5,0,9-3.3,9-7.5C242,109.2,238,105.8,233,105.8z"/>
	</g>
</g>
<g>
	<g>
		<path d="M401.2,105.8h-19.8c-5,0-9,3.3-9,7.5s4,7.5,9,7.5h19.8c5,0,9-3.3,9-7.5C410.2,109.2,406.2,105.8,401.2,105.8z"/>
	</g>
</g>
<g>
	<g>
		<path d="M250.7,140.5c-2.5-3.6-8-4.8-12.3-2.7l-17.2,8.3c-4.3,2.1-5.8,6.6-3.3,10.2c1.7,2.4,4.7,3.7,7.8,3.7c1.5,0,3.1-0.3,4.5-1
			l17.2-8.3C251.8,148.6,253.2,144.1,250.7,140.5z"/>
	</g>
</g>
<g>
	<g>
		<path d="M396.4,70.4c-2.5-3.6-8-4.8-12.3-2.7L366.9,76c-4.3,2.1-5.8,6.6-3.3,10.2c1.7,2.4,4.7,3.7,7.8,3.7c1.5,0,3.1-0.3,4.5-1
			l17.2-8.3C397.4,78.6,398.9,74,396.4,70.4z"/>
	</g>
</g>
<g>
	<g>
		<path d="M274.6,160.4c-4.3-2.1-9.8-0.8-12.3,2.7l-9.9,14.3c-2.5,3.6-1,8.1,3.3,10.2c1.4,0.7,3,1,4.5,1c3.1,0,6.1-1.3,7.8-3.7
			l9.9-14.3C280.4,167,278.9,162.4,274.6,160.4z"/>
	</g>
</g>
<g>
	<g>
		<path d="M358.7,39c-4.3-2.1-9.8-0.8-12.3,2.7l-9.9,14.3c-2.5,3.6-1,8.1,3.3,10.2c1.4,0.7,3,1,4.5,1c3.1,0,6.1-1.3,7.8-3.7
			l9.9-14.3C364.5,45.6,363,41.1,358.7,39z"/>
	</g>
</g>
<g>
	<g>
		<path d="M328.5,102.1c-2.8-4.4-7.3-7.7-12.8-9.4V78.3c0-4.1-4-7.5-9-7.5c-5,0-9,3.3-9,7.5V93c-0.6,0.2-1.2,0.4-1.8,0.7
			c-11.7,5.2-16.2,17.3-10,27.1c3,4.7,8.1,8.2,14.2,9.8c2.3,0.6,4.7,0.9,7.1,0.9c3.9,0,7.7-0.8,11.2-2.3c5.7-2.5,9.9-6.7,11.8-11.8
			C332.1,112.2,331.5,106.8,328.5,102.1z M310.1,116c-1.5,0.6-3.1,0.8-4.7,0.4c-1.6-0.4-2.9-1.3-3.6-2.5c-0.8-1.2-0.9-2.6-0.4-3.9
			c0.5-1.3,1.5-2.4,3-3c0.9-0.4,1.9-0.6,2.9-0.6c0.6,0,1.2,0.1,1.8,0.2c1.6,0.4,2.9,1.3,3.6,2.5C314.2,111.6,313.1,114.7,310.1,116z
			"/>
	</g>
</g>
</svg>
