<?xml version="1.0" encoding="utf-8"?>
<!-- Generator: Adobe Illustrator 19.2.1, SVG Export Plug-In . SVG Version: 6.00 Build 0)  -->
<svg version="1.1" id="Слой_1" xmlns="http://www.w3.org/2000/svg" xmlns:xlink="http://www.w3.org/1999/xlink" x="0px" y="0px"
	 viewBox="0 0 37 37" style="enable-background:new 0 0 37 37;" xml:space="preserve">
<style type="text/css">
	.st0{fill:#979797;}
</style>
<title>Group</title>
<desc>Created with Sketch.</desc>
<g id="Page-1">
	<g id="Group" transform="translate(3.000000, 3.000000)">
		<g id="Oval">
			<path class="st0" d="M13,29C4.2,29-3,21.8-3,13C-3,4.2,4.2-3,13-3s16,7.2,16,16C29,21.8,21.8,29,13,29z M13,3C7.5,3,3,7.5,3,13
				s4.5,10,10,10c5.5,0,10-4.5,10-10S18.5,3,13,3z"/>
		</g>
		<g id="Line">
			<path class="st0" d="M31,34c-0.8,0-1.5-0.3-2.1-0.9l-7.5-7.5c-1.2-1.2-1.2-3.1,0-4.2c1.2-1.2,3.1-1.2,4.2,0l7.5,7.5
				c1.2,1.2,1.2,3.1,0,4.2C32.5,33.7,31.8,34,31,34z"/>
		</g>
	</g>
</g>
</svg>
