<?xml version="1.0" encoding="UTF-8"?>
<svg width="381px" height="381px" viewBox="0 0 381 381" version="1.1" xmlns="http://www.w3.org/2000/svg" xmlns:xlink="http://www.w3.org/1999/xlink">
    <!-- Generator: Sketch 51 (57462) - http://www.bohemiancoding.com/sketch -->
    <title>restaurant-cutlery-circular-symbol-of-a-spoon-and-a-fork-in-a-circle</title>
    <desc>Created with Sketch.</desc>
    <defs></defs>
    <g id="Page-1" stroke="none" stroke-width="1" fill="none" fill-rule="evenodd">
        <g id="restaurant-cutlery-circular-symbol-of-a-spoon-and-a-fork-in-a-circle" fill="#F49E2F" fill-rule="nonzero">
            <path d="M190.372,29.813 C101.699,29.813 29.826,101.686 29.826,190.36 C29.826,254.251 67.244,309.254 121.271,335.094 L126.296,237.996 C126.296,237.996 116.844,234.894 114.775,233.884 C94.727,225.053 80.163,199.051 80.163,165.304 C80.163,128.479 108.722,96.76 136.333,96.498 C136.368,96.498 136.368,96.498 136.391,96.498 C136.403,96.498 136.426,96.498 136.437,96.498 C164.054,96.759 192.614,128.478 192.614,165.304 C192.614,199.051 178.032,225.042 158.025,233.884 C157.868,233.953 146.412,238.113 146.412,238.113 L152.024,346.074 C164.339,349.105 177.143,350.884 190.394,350.884 C208.264,350.884 225.378,347.84 241.435,342.46 L246.408,246.246 C233.303,243.364 222.125,235.021 215.119,224.554 C206.44,211.553 221.8,96.487 221.8,96.487 L231.792,96.487 L231.792,204.465 L241.715,204.465 L241.715,96.499 L252.567,96.499 L252.567,204.489 L262.443,204.489 L262.443,96.499 L273.702,96.499 L273.702,204.489 L283.612,204.489 L283.612,96.499 L291.28,96.499 C291.28,96.499 306.64,211.565 297.95,224.566 C291.013,234.93 279.94,243.249 266.998,246.2 C266.766,246.282 266.556,246.362 266.556,246.362 L270.878,329.123 C318.701,301.319 350.931,249.663 350.931,190.361 C350.907,101.687 279.034,29.813 190.372,29.813 Z" id="Shape"></path>
            <path d="M103.662,148.98 C104.237,146.639 105.01,144.414 105.045,144.374 C105.295,143.497 104.83,142.602 103.877,142.033 C102.971,141.545 101.867,141.795 101.356,142.579 C101.356,142.579 100.258,144.328 98.666,146.913 C97.371,149.138 95.454,152.693 94.146,157.12 C93.013,161 91.66,166.159 91.05,171.933 C90.789,174.966 90.73,177.702 90.823,180.519 C91.05,183.731 91.537,186.479 92.467,189.622 C95.621,198.586 98.05,207.266 106.816,215.828 C109.587,218.675 112.434,220.615 114.49,222.044 L115.216,222.555 C115.658,222.846 116.082,223.114 116.5,223.358 C118.226,224.264 119.381,224.589 119.591,224.635 C120.45,224.867 121.334,224.449 121.699,223.752 C122.042,223.02 121.792,222.102 121.078,221.522 C121.078,221.522 120.078,220.651 118.795,219.024 C117.918,218.036 116.965,216.607 115.856,214.993 C115.072,213.854 114.148,212.564 113.288,211.309 C109.018,204.791 106.556,195.694 103.151,186.375 C102.483,184.353 101.937,181.733 101.733,179.508 C101.461,176.94 101.333,174.466 101.333,172.171 C101.234,166.838 101.472,162.26 101.937,158.548 C102.471,154.36 102.889,151.217 103.662,148.98 Z" id="Shape"></path>
            <path d="M190.372,0 C85.415,0 0,85.397 0,190.36 C0,295.3 85.415,380.721 190.372,380.721 C295.324,380.721 380.722,295.3 380.722,190.36 C380.721,85.397 295.324,0 190.372,0 Z M190.372,366.523 C93.228,366.523 14.192,287.493 14.192,190.36 C14.192,93.216 93.228,14.18 190.372,14.18 C287.505,14.18 366.547,93.216 366.547,190.36 C366.546,287.493 287.504,366.523 190.372,366.523 Z" id="Shape"></path>
        </g>
    </g>
</svg>